<svg width="62" height="15" viewBox="0 0 62 15" fill="none" xmlns="http://www.w3.org/2000/svg">
<path d="M0.121805 11L3.7058 1.2H5.7218L9.3058 11H7.40181L6.6178 8.732H2.7958L1.9978 11H0.121805ZM3.2858 7.332H6.1278L4.69981 3.258L3.2858 7.332ZM10.5682 11V1.2H12.3602V11H10.5682ZM17.5956 11V1.2H19.3876V11H17.5956ZM21.245 11V4.056H22.827L22.967 5.232C23.1816 4.82133 23.4896 4.49467 23.891 4.252C24.3016 4.00933 24.7823 3.888 25.333 3.888C26.1916 3.888 26.859 4.15867 27.335 4.7C27.811 5.24133 28.049 6.03467 28.049 7.08V11H26.257V7.248C26.257 6.65067 26.1356 6.19333 25.893 5.876C25.6503 5.55867 25.2723 5.4 24.759 5.4C24.255 5.4 23.8396 5.57733 23.513 5.932C23.1956 6.28667 23.037 6.78133 23.037 7.416V11H21.245ZM32.6325 11.168C32.0165 11.168 31.4752 11.07 31.0085 10.874C30.5419 10.6687 30.1685 10.3887 29.8885 10.034C29.6085 9.67933 29.4405 9.26867 29.3845 8.802H31.1905C31.2465 9.07267 31.3959 9.306 31.6385 9.502C31.8905 9.68867 32.2125 9.782 32.6045 9.782C32.9965 9.782 33.2812 9.70267 33.4585 9.544C33.6452 9.38533 33.7385 9.20333 33.7385 8.998C33.7385 8.69933 33.6079 8.49867 33.3465 8.396C33.0852 8.284 32.7212 8.17667 32.2545 8.074C31.9559 8.00867 31.6525 7.92933 31.3445 7.836C31.0365 7.74267 30.7519 7.626 30.4905 7.486C30.2385 7.33667 30.0332 7.15 29.8745 6.926C29.7159 6.69267 29.6365 6.408 29.6365 6.072C29.6365 5.456 29.8792 4.938 30.3645 4.518C30.8592 4.098 31.5499 3.888 32.4365 3.888C33.2579 3.888 33.9112 4.07933 34.3965 4.462C34.8912 4.84467 35.1852 5.372 35.2785 6.044H33.5845C33.4819 5.53067 33.0945 5.274 32.4225 5.274C32.0865 5.274 31.8252 5.33933 31.6385 5.47C31.4612 5.60067 31.3725 5.764 31.3725 5.96C31.3725 6.16533 31.5079 6.32867 31.7785 6.45C32.0492 6.57133 32.4085 6.68333 32.8565 6.786C33.3419 6.898 33.7852 7.024 34.1865 7.164C34.5972 7.29467 34.9239 7.49533 35.1665 7.766C35.4092 8.02733 35.5305 8.40533 35.5305 8.9C35.5399 9.32933 35.4279 9.71667 35.1945 10.062C34.9612 10.4073 34.6252 10.678 34.1865 10.874C33.7479 11.07 33.2299 11.168 32.6325 11.168ZM38.084 2.978C37.7573 2.978 37.4867 2.88 37.272 2.684C37.0667 2.488 36.964 2.24067 36.964 1.942C36.964 1.64333 37.0667 1.40067 37.272 1.214C37.4867 1.018 37.7573 0.92 38.084 0.92C38.4107 0.92 38.6767 1.018 38.882 1.214C39.0967 1.40067 39.204 1.64333 39.204 1.942C39.204 2.24067 39.0967 2.488 38.882 2.684C38.6767 2.88 38.4107 2.978 38.084 2.978ZM37.188 11V4.056H38.98V11H37.188ZM43.7904 8.928C43.4544 8.928 43.1418 8.89067 42.8524 8.816L42.3344 9.334C42.4931 9.418 42.7078 9.488 42.9784 9.544C43.2491 9.6 43.6878 9.656 44.2944 9.712C45.2184 9.796 45.8904 10.0153 46.3104 10.37C46.7304 10.7247 46.9404 11.2147 46.9404 11.84C46.9404 12.2507 46.8284 12.638 46.6044 13.002C46.3804 13.3753 46.0351 13.674 45.5684 13.898C45.1018 14.1313 44.5044 14.248 43.7764 14.248C42.7871 14.248 41.9891 14.0613 41.3824 13.688C40.7758 13.324 40.4724 12.7733 40.4724 12.036C40.4724 11.4107 40.7758 10.8693 41.3824 10.412C41.1958 10.328 41.0324 10.2393 40.8924 10.146C40.7618 10.0527 40.6451 9.95467 40.5424 9.852V9.53L41.7604 8.242C41.2191 7.766 40.9484 7.15467 40.9484 6.408C40.9484 5.94133 41.0604 5.51667 41.2844 5.134C41.5178 4.75133 41.8444 4.448 42.2644 4.224C42.6844 4 43.1931 3.888 43.7904 3.888C44.1824 3.888 44.5464 3.944 44.8824 4.056H47.5144V5.148L46.3244 5.232C46.5111 5.58667 46.6044 5.97867 46.6044 6.408C46.6044 6.87467 46.4924 7.29933 46.2684 7.682C46.0444 8.06467 45.7178 8.368 45.2884 8.592C44.8684 8.816 44.3691 8.928 43.7904 8.928ZM43.7904 7.556C44.1544 7.556 44.4531 7.458 44.6864 7.262C44.9291 7.066 45.0504 6.786 45.0504 6.422C45.0504 6.058 44.9291 5.778 44.6864 5.582C44.4531 5.386 44.1544 5.288 43.7904 5.288C43.4078 5.288 43.0998 5.386 42.8664 5.582C42.6331 5.778 42.5164 6.058 42.5164 6.422C42.5164 6.786 42.6331 7.066 42.8664 7.262C43.0998 7.458 43.4078 7.556 43.7904 7.556ZM42.1104 11.854C42.1104 12.1993 42.2691 12.456 42.5864 12.624C42.9131 12.8013 43.3098 12.89 43.7764 12.89C44.2244 12.89 44.5884 12.7967 44.8684 12.61C45.1484 12.4327 45.2884 12.19 45.2884 11.882C45.2884 11.63 45.1951 11.42 45.0084 11.252C44.8311 11.084 44.4718 10.9813 43.9304 10.944C43.5478 10.916 43.1931 10.874 42.8664 10.818C42.5958 10.9673 42.3998 11.1307 42.2784 11.308C42.1664 11.4853 42.1104 11.6673 42.1104 11.854ZM48.8211 11V0.92H50.6131V5.12C50.8465 4.73733 51.1591 4.43867 51.5511 4.224C51.9525 4 52.4098 3.888 52.9231 3.888C53.7818 3.888 54.4445 4.15867 54.9111 4.7C55.3871 5.24133 55.6251 6.03467 55.6251 7.08V11H53.8471V7.248C53.8471 6.65067 53.7258 6.19333 53.4831 5.876C53.2498 5.55867 52.8765 5.4 52.3631 5.4C51.8591 5.4 51.4391 5.57733 51.1031 5.932C50.7765 6.28667 50.6131 6.78133 50.6131 7.416V11H48.8211ZM60.4327 11C59.7047 11 59.1214 10.8227 58.6827 10.468C58.244 10.1133 58.0247 9.48333 58.0247 8.578V5.554H56.8347V4.056H58.0247L58.2347 2.194H59.8167V4.056H61.6927V5.554H59.8167V8.592C59.8167 8.928 59.8867 9.16133 60.0267 9.292C60.176 9.41333 60.428 9.474 60.7827 9.474H61.6507V11H60.4327Z" fill="#5C4E8E"/>
</svg>
