<svg width="131" height="36" viewBox="0 0 131 36" fill="none" xmlns="http://www.w3.org/2000/svg">
<rect x="0.5" y="0.5" width="129.8" height="35" rx="7.5" fill="white"/>
<rect x="0.5" y="0.5" width="129.8" height="35" rx="7.5" fill="url(#paint0_linear_884_8089)" fill-opacity="0.12"/>
<rect x="0.5" y="0.5" width="129.8" height="35" rx="7.5" stroke="url(#paint1_linear_884_8089)"/>
<g clip-path="url(#clip0_884_8089)">
<path d="M17.2776 21.4828C17.489 21.6322 17.7417 21.712 18.0006 21.7114C18.2594 21.7107 18.5117 21.6296 18.7224 21.4792C18.936 21.3232 19.098 21.1072 19.1868 20.8576L19.7232 19.21C19.8608 18.7971 20.0926 18.4218 20.4002 18.1138C20.7078 17.8057 21.0828 17.5735 21.4956 17.4352L23.1648 16.8952C23.4116 16.8059 23.6241 16.6414 23.7724 16.4248C23.9208 16.2083 23.9974 15.9507 23.9916 15.6883C23.9858 15.4259 23.8977 15.1719 23.7399 14.9622C23.5821 14.7525 23.3625 14.5975 23.112 14.5192L21.462 13.9816C21.0488 13.8442 20.6732 13.6125 20.365 13.3048C20.0568 12.9972 19.8243 12.6222 19.686 12.2092L19.1436 10.5436C19.0562 10.2983 18.8946 10.0862 18.6811 9.93697C18.4677 9.78773 18.213 9.70874 17.9525 9.71098C17.6921 9.71323 17.4388 9.7966 17.2279 9.94949C17.0171 10.1024 16.8591 10.3172 16.776 10.564L16.2276 12.244C16.0899 12.6459 15.8629 13.0113 15.5636 13.3127C15.2643 13.614 14.9005 13.8436 14.4996 13.984L12.8316 14.5204C12.5863 14.608 12.3744 14.7697 12.2252 14.9832C12.076 15.1966 11.997 15.4513 11.9991 15.7117C12.0012 15.9721 12.0843 16.2254 12.2369 16.4364C12.3896 16.6474 12.6041 16.8057 12.8508 16.8892L14.4996 17.4232C14.9149 17.5611 15.292 17.7944 15.6007 18.1045C15.9094 18.4147 16.1409 18.7929 16.2768 19.2088L16.8192 20.878C16.9056 21.1228 17.0664 21.334 17.2776 21.4828ZM24.642 26.3333C24.7647 26.4195 24.9059 26.4761 25.0543 26.4984C25.2026 26.5208 25.3542 26.5083 25.4969 26.462C25.6396 26.4156 25.7696 26.3367 25.8766 26.2315C25.9835 26.1263 26.0645 25.9976 26.1132 25.8556L26.4108 24.9412C26.4752 24.7518 26.5819 24.5794 26.7228 24.4372C26.8644 24.2932 27.0372 24.1876 27.2268 24.1252L28.1532 23.8228C28.3444 23.7569 28.5098 23.6322 28.6259 23.4666C28.7421 23.3011 28.8029 23.1031 28.7999 22.9009C28.7968 22.6986 28.73 22.5026 28.6089 22.3406C28.4878 22.1786 28.3187 22.059 28.1256 21.9988L27.2088 21.6988C27.0192 21.6354 26.847 21.5289 26.7054 21.3877C26.5638 21.2466 26.4568 21.0746 26.3928 20.8852L26.0904 19.9576C26.0255 19.7669 25.9021 19.6014 25.7379 19.4846C25.5736 19.3678 25.3768 19.3057 25.1753 19.307C24.9737 19.3083 24.7777 19.373 24.615 19.492C24.4523 19.6109 24.3312 19.778 24.2688 19.9696L23.9724 20.884C23.9111 21.0722 23.8072 21.2436 23.6688 21.3849C23.5304 21.5262 23.3612 21.6337 23.1744 21.6988L22.2468 22.0012C22.0559 22.0659 21.8903 22.189 21.7733 22.3531C21.6563 22.5172 21.5939 22.714 21.5949 22.9155C21.596 23.117 21.6605 23.3131 21.7792 23.476C21.8979 23.6388 22.0649 23.7602 22.2564 23.8228L23.172 24.1192C23.364 24.184 23.5368 24.2908 23.6784 24.4324C23.8212 24.5752 23.9268 24.748 23.988 24.9388L24.2916 25.8676C24.3573 26.0554 24.4798 26.2181 24.642 26.3333Z" fill="url(#paint2_linear_884_8089)"/>
</g>
<path d="M41.6576 22.144C40.8656 22.144 40.1736 21.964 39.5816 21.604C38.9896 21.244 38.5296 20.74 38.2016 20.092C37.8736 19.444 37.7096 18.688 37.7096 17.824C37.7096 16.968 37.8776 16.212 38.2136 15.556C38.5496 14.9 39.0256 14.388 39.6416 14.02C40.2656 13.644 41.0016 13.456 41.8496 13.456C42.8096 13.456 43.6096 13.688 44.2496 14.152C44.8896 14.616 45.3056 15.256 45.4976 16.072H44.0576C43.9296 15.624 43.6776 15.272 43.3016 15.016C42.9256 14.76 42.4416 14.632 41.8496 14.632C40.9696 14.632 40.2776 14.916 39.7736 15.484C39.2696 16.052 39.0176 16.836 39.0176 17.836C39.0176 18.836 39.2656 19.616 39.7616 20.176C40.2576 20.736 40.9176 21.016 41.7416 21.016C42.5736 21.016 43.1976 20.78 43.6136 20.308C44.0376 19.836 44.2856 19.208 44.3576 18.424H42.0776V17.44H45.6416V22H44.4776L44.3696 20.764C44.0896 21.204 43.7376 21.544 43.3136 21.784C42.8896 22.024 42.3376 22.144 41.6576 22.144ZM50.0214 22.144C49.4374 22.144 48.9174 22.016 48.4614 21.76C48.0134 21.496 47.6614 21.132 47.4054 20.668C47.1494 20.204 47.0214 19.664 47.0214 19.048C47.0214 18.424 47.1454 17.876 47.3934 17.404C47.6494 16.932 48.0014 16.564 48.4494 16.3C48.9054 16.036 49.4334 15.904 50.0334 15.904C50.6174 15.904 51.1254 16.036 51.5574 16.3C51.9894 16.556 52.3254 16.9 52.5654 17.332C52.8054 17.764 52.9254 18.24 52.9254 18.76C52.9254 18.84 52.9214 18.928 52.9134 19.024C52.9134 19.112 52.9094 19.212 52.9014 19.324H48.2694C48.3094 19.9 48.4974 20.34 48.8334 20.644C49.1774 20.94 49.5734 21.088 50.0214 21.088C50.3814 21.088 50.6814 21.008 50.9214 20.848C51.1694 20.68 51.3534 20.456 51.4734 20.176H52.7454C52.5854 20.736 52.2654 21.204 51.7854 21.58C51.3134 21.956 50.7254 22.144 50.0214 22.144ZM50.0214 16.948C49.5974 16.948 49.2214 17.076 48.8934 17.332C48.5654 17.58 48.3654 17.956 48.2934 18.46H51.6534C51.6294 17.996 51.4654 17.628 51.1614 17.356C50.8574 17.084 50.4774 16.948 50.0214 16.948ZM56.6889 22C56.1049 22 55.6409 21.86 55.2969 21.58C54.9529 21.292 54.7809 20.784 54.7809 20.056V17.116H53.7609V16.048H54.7809L54.9369 14.536H56.0529V16.048H57.7329V17.116H56.0529V20.056C56.0529 20.384 56.1209 20.612 56.2569 20.74C56.4009 20.86 56.6449 20.92 56.9889 20.92H57.6729V22H56.6889ZM61.7759 22L64.8719 13.6H66.2639L69.3359 22H67.9919L67.2719 19.948H63.8399L63.1199 22H61.7759ZM64.1999 18.94H66.9119L65.5559 15.112L64.1999 18.94ZM70.6073 22V13.6H71.8793V22H70.6073ZM76.8073 22V13.6H78.0793V22H76.8073ZM79.8358 22V16.048H80.9638L81.0598 17.092C81.2438 16.724 81.5118 16.436 81.8638 16.228C82.2238 16.012 82.6358 15.904 83.0998 15.904C83.8198 15.904 84.3838 16.128 84.7918 16.576C85.2078 17.024 85.4158 17.692 85.4158 18.58V22H84.1558V18.712C84.1558 17.56 83.6838 16.984 82.7398 16.984C82.2678 16.984 81.8758 17.152 81.5638 17.488C81.2598 17.824 81.1078 18.304 81.1078 18.928V22H79.8358ZM89.39 22.144C88.638 22.144 88.018 21.96 87.53 21.592C87.042 21.224 86.762 20.736 86.69 20.128H87.974C88.038 20.4 88.19 20.636 88.43 20.836C88.67 21.028 88.986 21.124 89.378 21.124C89.762 21.124 90.042 21.044 90.218 20.884C90.394 20.724 90.482 20.54 90.482 20.332C90.482 20.028 90.358 19.824 90.11 19.72C89.87 19.608 89.534 19.508 89.102 19.42C88.766 19.348 88.43 19.252 88.094 19.132C87.766 19.012 87.49 18.844 87.266 18.628C87.05 18.404 86.942 18.104 86.942 17.728C86.942 17.208 87.142 16.776 87.542 16.432C87.942 16.08 88.502 15.904 89.222 15.904C89.886 15.904 90.422 16.064 90.83 16.384C91.246 16.704 91.49 17.156 91.562 17.74H90.338C90.298 17.484 90.178 17.284 89.978 17.14C89.786 16.996 89.526 16.924 89.198 16.924C88.878 16.924 88.63 16.992 88.454 17.128C88.278 17.256 88.19 17.424 88.19 17.632C88.19 17.84 88.31 18.004 88.55 18.124C88.798 18.244 89.122 18.352 89.522 18.448C89.922 18.536 90.29 18.64 90.626 18.76C90.97 18.872 91.246 19.04 91.454 19.264C91.662 19.488 91.766 19.816 91.766 20.248C91.774 20.792 91.562 21.244 91.13 21.604C90.706 21.964 90.126 22.144 89.39 22.144ZM93.9746 14.92C93.7346 14.92 93.5346 14.848 93.3746 14.704C93.2226 14.552 93.1466 14.364 93.1466 14.14C93.1466 13.916 93.2226 13.732 93.3746 13.588C93.5346 13.436 93.7346 13.36 93.9746 13.36C94.2146 13.36 94.4106 13.436 94.5626 13.588C94.7226 13.732 94.8026 13.916 94.8026 14.14C94.8026 14.364 94.7226 14.552 94.5626 14.704C94.4106 14.848 94.2146 14.92 93.9746 14.92ZM93.3386 22V16.048H94.6106V22H93.3386ZM98.8257 20.176C98.5137 20.176 98.2257 20.14 97.9617 20.068L97.4457 20.572C97.5337 20.628 97.6417 20.676 97.7697 20.716C97.8977 20.756 98.0777 20.792 98.3097 20.824C98.5417 20.856 98.8577 20.888 99.2577 20.92C100.05 20.992 100.622 21.184 100.974 21.496C101.326 21.8 101.502 22.208 101.502 22.72C101.502 23.072 101.406 23.404 101.214 23.716C101.03 24.036 100.738 24.292 100.338 24.484C99.9457 24.684 99.4417 24.784 98.8257 24.784C97.9937 24.784 97.3177 24.624 96.7977 24.304C96.2857 23.992 96.0297 23.516 96.0297 22.876C96.0297 22.628 96.0937 22.38 96.2217 22.132C96.3577 21.892 96.5697 21.664 96.8577 21.448C96.6897 21.376 96.5417 21.3 96.4137 21.22C96.2937 21.132 96.1857 21.044 96.0897 20.956V20.668L97.1217 19.612C96.6577 19.212 96.4257 18.688 96.4257 18.04C96.4257 17.648 96.5177 17.292 96.7017 16.972C96.8937 16.644 97.1697 16.384 97.5297 16.192C97.8897 16 98.3217 15.904 98.8257 15.904C99.1617 15.904 99.4737 15.952 99.7617 16.048H101.982V16.888L100.926 16.948C101.118 17.276 101.214 17.64 101.214 18.04C101.214 18.44 101.118 18.8 100.926 19.12C100.742 19.44 100.47 19.696 100.11 19.888C99.7577 20.08 99.3297 20.176 98.8257 20.176ZM98.8257 19.18C99.1937 19.18 99.4897 19.084 99.7137 18.892C99.9457 18.692 100.062 18.412 100.062 18.052C100.062 17.684 99.9457 17.404 99.7137 17.212C99.4897 17.02 99.1937 16.924 98.8257 16.924C98.4497 16.924 98.1457 17.02 97.9137 17.212C97.6897 17.404 97.5777 17.684 97.5777 18.052C97.5777 18.412 97.6897 18.692 97.9137 18.892C98.1457 19.084 98.4497 19.18 98.8257 19.18ZM97.2297 22.756C97.2297 23.1 97.3817 23.356 97.6857 23.524C97.9897 23.7 98.3697 23.788 98.8257 23.788C99.2657 23.788 99.6217 23.692 99.8937 23.5C100.166 23.316 100.302 23.068 100.302 22.756C100.302 22.524 100.21 22.324 100.026 22.156C99.8417 21.996 99.4937 21.896 98.9817 21.856C98.5977 21.832 98.2577 21.796 97.9617 21.748C97.6817 21.9 97.4897 22.064 97.3857 22.24C97.2817 22.416 97.2297 22.588 97.2297 22.756ZM103.216 22V13.36H104.488V17.008C104.688 16.664 104.964 16.396 105.316 16.204C105.676 16.004 106.072 15.904 106.504 15.904C107.216 15.904 107.776 16.128 108.184 16.576C108.592 17.024 108.796 17.692 108.796 18.58V22H107.536V18.712C107.536 17.56 107.076 16.984 106.156 16.984C105.676 16.984 105.276 17.152 104.956 17.488C104.644 17.824 104.488 18.304 104.488 18.928V22H103.216ZM112.89 22C112.306 22 111.842 21.86 111.498 21.58C111.154 21.292 110.982 20.784 110.982 20.056V17.116H109.962V16.048H110.982L111.138 14.536H112.254V16.048H113.934V17.116H112.254V20.056C112.254 20.384 112.322 20.612 112.458 20.74C112.602 20.86 112.846 20.92 113.19 20.92H113.874V22H112.89Z" fill="#5C4E8E"/>
<defs>
<linearGradient id="paint0_linear_884_8089" x1="0" y1="18" x2="130.8" y2="18" gradientUnits="userSpaceOnUse">
<stop stop-color="#8AC7FF"/>
<stop offset="0.35" stop-color="#7A16FC"/>
<stop offset="0.705" stop-color="#ED0E00"/>
<stop offset="0.995" stop-color="#FF9E45"/>
</linearGradient>
<linearGradient id="paint1_linear_884_8089" x1="0" y1="18" x2="130.8" y2="18" gradientUnits="userSpaceOnUse">
<stop stop-color="#8AC7FF"/>
<stop offset="0.35" stop-color="#7A16FC"/>
<stop offset="0.705" stop-color="#ED0E00"/>
<stop offset="0.995" stop-color="#FF9E45"/>
</linearGradient>
<linearGradient id="paint2_linear_884_8089" x1="15.6" y1="12.5339" x2="28.245" y2="21.4703" gradientUnits="userSpaceOnUse">
<stop stop-color="#8AA4FF"/>
<stop offset="0.35" stop-color="#7A16FC"/>
<stop offset="0.705" stop-color="#ED0E00"/>
<stop offset="0.995" stop-color="#FF9E45"/>
</linearGradient>
<clipPath id="clip0_884_8089">
<rect width="16.8" height="18" fill="white" transform="translate(12 9)"/>
</clipPath>
</defs>
</svg>
