<svg width="17" height="18" viewBox="0 0 17 18" fill="none" xmlns="http://www.w3.org/2000/svg">
<path d="M5.27759 12.4828C5.48904 12.6322 5.7417 12.712 6.00056 12.7114C6.25942 12.7107 6.51168 12.6296 6.72239 12.4792C6.93599 12.3232 7.09799 12.1072 7.18679 11.8576L7.72319 10.21C7.86083 9.79708 8.09261 9.42177 8.40021 9.11375C8.70781 8.80574 9.0828 8.57345 9.49559 8.43525L11.1648 7.89525C11.4116 7.8059 11.6241 7.64137 11.7724 7.42484C11.9208 7.2083 11.9974 6.95069 11.9916 6.68829C11.9858 6.42589 11.8977 6.17193 11.7399 5.9622C11.5821 5.75248 11.3625 5.59755 11.112 5.51925L9.46199 4.98165C9.0488 4.84416 8.67324 4.61246 8.36501 4.30485C8.05678 3.99724 7.82431 3.62216 7.68599 3.20925L7.14359 1.54365C7.05625 1.29826 6.8946 1.0862 6.68113 0.936967C6.46766 0.78773 6.21298 0.70874 5.95252 0.710984C5.69207 0.713228 5.43879 0.796595 5.22792 0.949488C5.01706 1.10238 4.85908 1.3172 4.77599 1.56405L4.22759 3.24405C4.08992 3.64589 3.86288 4.01126 3.56357 4.31265C3.26425 4.61404 2.90046 4.8436 2.49959 4.98405L0.831587 5.52045C0.586302 5.60797 0.374353 5.7697 0.225166 5.98316C0.0759779 6.19663 -0.00304619 6.45125 -0.000935351 6.71167C0.00117548 6.9721 0.0843164 7.2254 0.236945 7.43643C0.389573 7.64745 0.604116 7.80571 0.850787 7.88925L2.49959 8.42325C2.91488 8.56106 3.29202 8.79442 3.60069 9.10455C3.90936 9.41467 4.14093 9.79292 4.27679 10.2088L4.81919 11.878C4.90559 12.1228 5.06639 12.334 5.27759 12.4828ZM12.642 17.3333C12.7647 17.4195 12.9059 17.4761 13.0543 17.4984C13.2026 17.5208 13.3542 17.5083 13.4969 17.462C13.6396 17.4156 13.7696 17.3367 13.8766 17.2315C13.9835 17.1263 14.0645 16.9976 14.1132 16.8556L14.4108 15.9412C14.4752 15.7518 14.5819 15.5794 14.7228 15.4372C14.8644 15.2932 15.0372 15.1876 15.2268 15.1252L16.1532 14.8228C16.3444 14.7569 16.5098 14.6322 16.6259 14.4666C16.7421 14.3011 16.8029 14.1031 16.7999 13.9009C16.7968 13.6986 16.73 13.5026 16.6089 13.3406C16.4878 13.1786 16.3187 13.059 16.1256 12.9988L15.2088 12.6988C15.0192 12.6354 14.847 12.5289 14.7054 12.3877C14.5638 12.2466 14.4568 12.0746 14.3928 11.8852L14.0904 10.9576C14.0255 10.7669 13.9021 10.6014 13.7379 10.4846C13.5736 10.3678 13.3768 10.3057 13.1753 10.307C12.9737 10.3083 12.7777 10.373 12.615 10.492C12.4523 10.6109 12.3312 10.778 12.2688 10.9696L11.9724 11.884C11.9111 12.0722 11.8072 12.2436 11.6688 12.3849C11.5304 12.5262 11.3612 12.6337 11.1744 12.6988L10.2468 13.0012C10.0559 13.0659 9.89026 13.189 9.77326 13.3531C9.65627 13.5172 9.59388 13.714 9.59494 13.9155C9.59601 14.117 9.66046 14.3131 9.77918 14.476C9.8979 14.6388 10.0649 14.7602 10.2564 14.8228L11.172 15.1192C11.364 15.184 11.5368 15.2908 11.6784 15.4324C11.8212 15.5752 11.9268 15.748 11.988 15.9388L12.2916 16.8676C12.3573 17.0554 12.4798 17.2181 12.642 17.3333Z" fill="url(#paint0_linear_884_8905)"/>
<defs>
<linearGradient id="paint0_linear_884_8905" x1="3.59998" y1="3.53393" x2="16.245" y2="12.4703" gradientUnits="userSpaceOnUse">
<stop stop-color="#8AA4FF"/>
<stop offset="0.35" stop-color="#7A16FC"/>
<stop offset="0.705" stop-color="#ED0E00"/>
<stop offset="0.995" stop-color="#FF9E45"/>
</linearGradient>
</defs>
</svg>
