<svg width="14" height="14" viewBox="0 0 14 14" fill="none" xmlns="http://www.w3.org/2000/svg">
<path d="M13.75 3.25V12.25C13.75 12.6625 13.6031 13.0156 13.3094 13.3094C13.0156 13.6031 12.6625 13.75 12.25 13.75H1.75C1.3375 13.75 0.984375 13.6031 0.690625 13.3094C0.396875 13.0156 0.25 12.6625 0.25 12.25V1.75C0.25 1.3375 0.396875 0.984375 0.690625 0.690625C0.984375 0.396875 1.3375 0.25 1.75 0.25H10.75L13.75 3.25ZM12.25 3.8875L10.1125 1.75H1.75V12.25H12.25V3.8875ZM7 11.5C7.625 11.5 8.15625 11.2812 8.59375 10.8438C9.03125 10.4062 9.25 9.875 9.25 9.25C9.25 8.625 9.03125 8.09375 8.59375 7.65625C8.15625 7.21875 7.625 7 7 7C6.375 7 5.84375 7.21875 5.40625 7.65625C4.96875 8.09375 4.75 8.625 4.75 9.25C4.75 9.875 4.96875 10.4062 5.40625 10.8438C5.84375 11.2812 6.375 11.5 7 11.5ZM2.5 5.5H9.25V2.5H2.5V5.5Z" fill="white"/>
</svg>
