<svg width="202" height="16" viewBox="0 0 202 16" fill="none" xmlns="http://www.w3.org/2000/svg">
<path d="M0.292892 7.29289C-0.0976334 7.68342 -0.0976334 8.31658 0.292892 8.70711L6.65685 15.0711C7.04738 15.4616 7.68054 15.4616 8.07107 15.0711C8.46159 14.6805 8.46159 14.0474 8.07107 13.6569L2.41422 8L8.07107 2.34315C8.46159 1.95262 8.46159 1.31946 8.07107 0.928932C7.68054 0.538408 7.04738 0.538408 6.65685 0.928932L0.292892 7.29289ZM101 7L1 7V9L101 9V7Z" fill="black"/>
<path d="M201.707 8.70711C202.098 8.31658 202.098 7.68342 201.707 7.29289L195.343 0.928932C194.953 0.538408 194.319 0.538408 193.929 0.928932C193.538 1.31946 193.538 1.95262 193.929 2.34315L199.586 8L193.929 13.6569C193.538 14.0474 193.538 14.6805 193.929 15.0711C194.319 15.4616 194.953 15.4616 195.343 15.0711L201.707 8.70711ZM101 9H201V7H101V9Z" fill="black"/>
</svg>
